<svg viewBox="0 0 17 19" fill="none" xmlns="http://www.w3.org/2000/svg">
  <path
    d="M16.5 16.5H10.5M10.5 16.5C10.5 15.3954 9.6046 14.5 8.5 14.5C7.3954 14.5 6.5 15.3954 6.5 16.5M10.5 16.5C10.5 17.6046 9.6046 18.5 8.5 18.5C7.3954 18.5 6.5 17.6046 6.5 16.5M6.5 16.5H0.5M16.5 9.5L4.5 9.5M4.5 9.5C4.5 8.3954 3.6046 7.5 2.5 7.5C1.3954 7.5 0.5 8.3954 0.5 9.5C0.5 10.6046 1.3954 11.5 2.5 11.5C3.6046 11.5 4.5 10.6046 4.5 9.5ZM12.5 2.5L0.5 2.5M12.5 2.5C12.5 3.6046 13.3954 4.5 14.5 4.5C15.6046 4.5 16.5 3.6046 16.5 2.5C16.5 1.3954 15.6046 0.5 14.5 0.5C13.3954 0.5 12.5 1.3954 12.5 2.5Z"
    stroke="currentColor" stroke-linecap="round" />
</svg>
