<svg viewBox="0 0 16 16" fill="none" xmlns="http://www.w3.org/2000/svg">
  <g clip-path="url(#clip0_6603_1995)">
    <path
      d="M7.99992 14.6666C6.57042 14.6666 5.54174 14.6659 4.73972 14.5882C3.94689 14.5113 3.43972 14.3636 3.03497 14.1093C2.57237 13.8186 2.1812 13.4275 1.89052 12.9649C1.63628 12.5602 1.4885 12.053 1.41174 11.2602C1.33396 10.4582 1.33325 9.42947 1.33325 7.99998C1.33325 6.57048 1.33396 5.5418 1.41174 4.73978C1.4885 3.94695 1.63628 3.43978 1.89052 3.03503C2.18119 2.57242 2.57236 2.18125 3.03497 1.89059C3.43972 1.63634 3.94689 1.48857 4.73972 1.4118C5.54164 1.33402 6.57032 1.33331 7.99992 1.33331C9.42941 1.33331 10.4581 1.33402 11.2601 1.4118C12.0529 1.48857 12.5601 1.63634 12.9649 1.89059C13.4274 2.18126 13.8186 2.57243 14.1092 3.03503C14.3636 3.43978 14.5112 3.94695 14.5881 4.73978C14.6659 5.5418 14.6666 6.57048 14.6666 7.99998C14.6666 9.42947 14.6659 10.4582 14.5881 11.2602C14.5112 12.053 14.3636 12.5602 14.1092 12.9649C13.8186 13.4275 13.4274 13.8186 12.9649 14.1093C12.5601 14.3636 12.0529 14.5113 11.2601 14.5882C10.4581 14.6659 9.42941 14.6666 7.99992 14.6666Z"
      fill="currentColor" stroke="currentColor" stroke-width="2" />
    <path
      d="M7.99992 11.3333C9.47268 11.3333 10.6666 10.1394 10.6666 8.66667C10.6666 7.19391 9.47268 6 7.99992 6C6.52716 6 5.33325 7.19391 5.33325 8.66667C5.33325 10.1394 6.52716 11.3333 7.99992 11.3333Z"
      fill="currentColor" stroke="black" stroke-width="2" />
    <path
      d="M11.25 5.5C11.6642 5.5 12 5.16421 12 4.75C12 4.33579 11.6642 4 11.25 4C10.8358 4 10.5 4.33579 10.5 4.75C10.5 5.16421 10.8358 5.5 11.25 5.5Z"
      fill="black" />
  </g>
  <defs>
    <clipPath id="clip0_6603_1995">
      <rect fill="currentColor" />
    </clipPath>
  </defs>
</svg>
