<svg viewBox="0 0 19 18" fill="none" xmlns="http://www.w3.org/2000/svg">
  <path
    d="M8.14502 1.20813C8.58472 0.264535 9.92602 0.264537 10.3657 1.20813L11.8052 4.29602C12.1295 4.9916 12.7894 5.47124 13.5513 5.56458L16.9321 5.97864C17.9654 6.10523 18.3802 7.38118 17.6187 8.09094L15.1265 10.4132C14.5649 10.9366 14.3128 11.7133 14.4595 12.4669L15.1108 15.8107C15.3095 16.8323 14.2242 17.6209 13.314 17.1163L10.3345 15.464C9.66311 15.0916 8.84763 15.0916 8.17627 15.464L5.19678 17.1163C4.28656 17.6209 3.20124 16.8323 3.3999 15.8107L4.05127 12.4669C4.19795 11.7133 3.94589 10.9366 3.38428 10.4132L0.89209 8.09094C0.130555 7.38117 0.545327 6.10523 1.57861 5.97864L4.95947 5.56458C5.72129 5.47124 6.38121 4.9916 6.70557 4.29602L8.14502 1.20813Z"
    fill="url(#paint0_linear_12955_195)" stroke="currentColor" />
  <defs>
    <linearGradient id="paint0_linear_12955_195" x1="8.37435" y1="9.49129" x2="17.1334" y2="9.49129"
      gradientUnits="userSpaceOnUse">
      <stop offset="0.394791" stop-color="currentColor" />
      <stop offset="0.394891" stop-color="currentColor" stop-opacity="0" />
    </linearGradient>
  </defs>
</svg>
