<svg viewBox="0 0 19 18" fill="none" xmlns="http://www.w3.org/2000/svg">
  <path
    d="M7.69162 0.996518C8.31077 -0.332155 10.2 -0.332156 10.8191 0.996517L12.258 4.08435C12.5094 4.62386 13.0212 4.99567 13.612 5.06805L16.9933 5.48232C18.4483 5.66058 19.0321 7.45732 17.9597 8.45674L15.4677 10.7794C15.0323 11.1852 14.8368 11.7868 14.9505 12.3711L15.6014 15.7149C15.8815 17.1538 14.3531 18.2642 13.0712 17.5532L10.0922 15.9009C9.57165 15.6122 8.93909 15.6122 8.41858 15.9009L5.43952 17.5532C4.15764 18.2642 2.62925 17.1538 2.90932 15.7149L3.56022 12.3711C3.67394 11.7868 3.47847 11.1852 3.04306 10.7794L0.550996 8.45674C-0.521322 7.45732 0.062474 5.66058 1.51744 5.48232L4.89879 5.06805C5.48958 4.99567 6.00133 4.62386 6.25274 4.08435L7.69162 0.996518Z"
    fill="currentColor" />
</svg>
